<?xml version="1.0" encoding="utf-8"?>
<!-- Generator: Adobe Illustrator 25.4.1, SVG Export Plug-In . SVG Version: 6.00 Build 0)  -->
<svg version="1.1" id="Layer_1" xmlns="http://www.w3.org/2000/svg" xmlns:xlink="http://www.w3.org/1999/xlink" x="0px" y="0px"
	 viewBox="0 0 34 34" style="enable-background:new 0 0 34 34;" xml:space="preserve">
<style type="text/css">
	.st0{fill-rule:evenodd;clip-rule:evenodd;fill:#333333;}
</style>
<path class="st0" d="M16.9999981,8.6399126c0.4486256,0,0.8188419,0.3357105,0.8731422,0.7696104l0.0068607,0.1103897v6.6739979
	l2.8977394-2.8962479c0.3150311-0.3150301,0.8094711-0.34128,1.1543999-0.0787601l0.0901108,0.0787601
	c0.3150196,0.3150196,0.34128,0.8094597,0.0787601,1.1543903l-0.0787601,0.0901098l-4.3999977,4.4000025
	c-0.0079556,0.0079556-0.0160255,0.0157261-0.0242043,0.0233135l-0.0318317,0.0281029
	c-0.0174599,0.0147457-0.0352535,0.0285873-0.0534325,0.0416527c-0.0125961,0.0089722-0.0258045,0.0179367-0.0392628,0.0265446
	c-0.0174789,0.011261-0.0349407,0.021574-0.0526638,0.0312309c-0.0139408,0.0075359-0.0282021,0.014822-0.0426807,0.0217228
	c-0.0182056,0.0086956-0.0364513,0.016613-0.0548935,0.0238857c-0.0236244,0.009346-0.0477009,0.0176735-0.0722275,0.0249615
	l-0.0005093,0.0000858l-0.0273132,0.0076084c-0.001318,0.0003433-0.002636,0.0006847-0.0039539,0.0010223
	c-0.0697842,0.0180149-0.1434116,0.0276146-0.2192822,0.0276146c-0.07477,0-0.1473637-0.009325-0.2166786-0.0268764
	c-0.0039215-0.0010757-0.0052395-0.0014172-0.0065556-0.0017605l-0.0278225-0.0076942
	c-0.0245266-0.007288-0.0486031-0.0156155-0.0721836-0.024931c-0.0184879-0.0073032-0.0367336-0.0152206-0.0547485-0.0237865
	c-0.0146694-0.0070305-0.0289288-0.0143166-0.0429573-0.0219707c-0.0176373-0.0095387-0.035099-0.0198517-0.0522633-0.0308208
	l-0.0399265-0.0271721l-0.0558777-0.0436459l-0.0139866-0.0123405l-0.0151501-0.0135384l-0.0118484-0.0114632l-0.0122547-0.0117455
	l-4.3999996-4.4000025c-0.3436613-0.3436604-0.3436613-0.9008398,0-1.2445002
	c0.3150225-0.3150301,0.8094645-0.34128,1.1543913-0.0787601l0.0901165,0.0787601l2.8977461,2.8972492V9.5199127
	c0-0.4486303,0.3357067-0.8188391,0.7696152-0.8731394L16.9999981,8.6399126z M24.920002,18.0560875
	c0.4860096,0,0.8799992,0.3939896,0.8799992,0.8799992v2.3760014c0,2.2354507-1.8125496,4.0480003-4.0480003,4.0480003h-9.5040016
	c-2.2354507,0-4.0480003-1.8125496-4.0480003-4.0480003v-2.3760014c0-0.4860096,0.3939896-0.8799992,0.8800001-0.8799992
	s0.8800001,0.3939896,0.8800001,0.8799992v2.3760014c0,1.2634296,1.0245705,2.2880001,2.2880001,2.2880001h9.5040016
	c1.2634296,0,2.2880001-1.0245705,2.2880001-2.2880001v-2.3760014
	C24.0400009,18.4500771,24.4339905,18.0560875,24.920002,18.0560875z"/>
</svg>
