<?xml version="1.0" encoding="utf-8"?>
<!-- Generator: Adobe Illustrator 25.3.1, SVG Export Plug-In . SVG Version: 6.00 Build 0)  -->
<svg version="1.1" id="Layer_1"
	xmlns="http://www.w3.org/2000/svg"
	xmlns:xlink="http://www.w3.org/1999/xlink" x="0px" y="0px" viewBox="0 0 34 34" style="enable-background:new 0 0 34 34;" xml:space="preserve">
	<circle fill="none" cx="17px" cy="17px" r="17px" />
	<path d="M16.9799633,9.2725916l7.747366,7.747365l-4.2260494,4.2260437l-7.7473621-7.7481384L16.9799633,9.2725916z
	 M12.4030228,17.4073334l-1.236557,1.236557c-0.4644547,0.4639874-0.4644547,1.2162838,0.0002756,1.681015L13.675787,22.83395
	c0.4640036,0.4640045,1.2165127,0.4640045,1.680398,0.0001183l1.2365179-1.2370529L12.4030228,17.4073334z M12.4030228,15.2217312
	l6.3750458,6.3750477l-0.5461636,0.5464001l-1.7828007,1.7835732c-1.0675411,1.0675411-2.7985773,1.0675411-3.8661184,0
	l-2.5090456-2.5090466c-1.0683603-1.0683594-1.0683603-2.7996082,0-3.8668919L12.4030228,15.2217312z"/>
</svg>
